<svg width="405" height="573" viewBox="0 0 405 573" fill="none" xmlns="http://www.w3.org/2000/svg">
<path fill-rule="evenodd" clip-rule="evenodd" d="M166.953 76.5679C162.462 77.4527 158.176 78.5416 154.979 79.7667C153.618 80.2432 152.121 80.7876 151.509 80.9238C148.788 81.7405 139.331 86.9811 135.726 89.7035C130.963 93.3107 124.976 99.4362 122.051 103.86C115.996 112.708 111.302 125.503 109.669 137.55C108.784 144.356 107.56 155.314 107.016 160.759C106.335 168.722 105.655 173.418 104.294 178.726C102.934 184.103 101.437 187.234 97.2869 194.312C92.3886 202.548 89.191 209.762 87.5582 216.16C86.1976 221.4 86.1295 222.557 86.4017 229.227C86.8099 240.525 89.6672 249.713 95.1779 257.404C103.206 268.77 118.309 279.932 130.419 283.675C132.528 284.356 134.229 285.037 134.229 285.309C134.229 285.581 131.78 288.236 128.786 291.23C118.173 301.984 112.866 313.01 115.044 319.679C117.697 327.574 131.916 333.7 154.23 336.558C161.374 337.443 186.138 337.443 193.145 336.558C200.833 335.537 208.249 334.448 210.698 333.904C211.854 333.632 214.304 333.087 216.072 332.815C217.841 332.407 220.359 331.862 221.651 331.454C223.012 331.045 224.985 330.501 226.209 330.161C232.877 328.323 238.115 326.758 239.544 326.145C240.428 325.737 241.993 325.124 243.013 324.784C244.034 324.376 247.232 322.81 250.021 321.449C258.321 317.297 262.675 312.533 262.675 307.633C262.675 302.664 257.913 291.57 252.946 285.377C251.45 283.539 250.293 281.974 250.429 281.838C250.497 281.77 253.423 280.749 256.756 279.728C282.609 271.357 298.12 254.818 301.25 232.29C302.134 225.824 302.27 220.72 301.522 215.003C299.685 201.254 295.943 194.38 282.881 180.972C269.342 167.088 267.369 164.093 264.92 154.021C258.797 128.158 250.701 112.163 236.891 98.7556C224.304 86.7089 207.84 78.95 188.723 76.2957C183.621 75.6151 171.443 75.8192 166.953 76.5679ZM155.795 125.776C161.238 133.262 167.905 141.293 172.735 146.398C174.708 148.44 176.205 150.277 176.205 150.549C176.205 150.754 175.525 150.958 174.776 150.958C173.28 150.958 169.538 152.115 167.565 153.136C166.408 153.816 166.272 155.926 167.497 156.879C168.177 157.424 168.79 157.356 170.967 156.607C172.94 155.926 174.708 155.722 177.974 155.858L182.328 156.062L186.886 159.738C191.853 163.821 199.54 168.994 203.622 171.104C208.385 173.554 215.8 176.208 216.957 175.868C217.637 175.664 218.794 174.507 219.814 173.214C222.944 168.926 229.883 166.884 234.169 169.062C237.979 171.036 239.612 173.622 240.768 179.407C242.877 190.229 235.122 202.752 226.345 202.752C224.713 202.752 223.08 202.207 220.699 200.914C217.365 199.076 217.297 199.076 216.277 200.029C215.732 200.574 215.12 202.071 214.916 203.364C213.895 209.286 210.494 215.955 205.936 220.72C202.058 224.803 201.717 226.096 204.099 227.117C205.187 227.662 205.391 228.274 206.072 234.264C206.752 240.457 208.317 247.876 210.154 253.184C212.127 258.902 215.256 263.257 219.406 265.844C220.563 266.592 221.583 267.477 221.583 267.817C221.583 268.77 213.487 276.869 210.154 279.184C204.575 283.131 197.363 285.99 190.356 287.147C184.369 288.031 174.913 287.419 170.831 285.717C166.136 283.88 161.306 278.979 161.306 276.189C161.306 275.576 164.027 274.011 168.994 271.629C175.797 268.294 176.885 267.613 178.178 265.639C179.539 263.53 179.607 262.917 179.607 258.017C179.607 252.844 178.382 246.106 177.158 244.541C176.409 243.588 176.953 243.043 179.471 242.295C180.763 241.886 183.485 240.934 185.526 240.185C188.995 238.892 189.267 238.688 189.267 237.19C189.267 235.829 189.063 235.625 187.839 235.421C186.954 235.353 184.981 235.693 183.281 236.306C172.395 240.117 161.306 241.002 153.006 238.824C143.958 236.374 133.412 228.683 128.65 220.856C126.337 217.112 125.521 215.275 124.976 212.552C124.024 208.06 122.323 193.7 122.323 189.888C122.323 187.642 122.119 183.967 121.779 181.585C121.507 179.271 121.166 174.371 121.098 170.627C120.894 162.12 121.915 158.717 124.84 157.424C127.153 156.471 132.324 156.335 136.27 157.219C139.739 158.036 141.168 157.424 140.828 155.382C140.556 153.544 137.018 152.251 131.78 151.979C129.126 151.775 127.085 151.57 127.085 151.298C127.085 149.733 137.29 134.759 143.889 126.592C146.203 123.734 148.516 120.875 148.992 120.331C149.4 119.786 150.08 119.378 150.489 119.31C150.897 119.514 153.278 122.373 155.795 125.776Z" fill="#010101"/>
<path fill-rule="evenodd" clip-rule="evenodd" d="M127.221 165.727C123.548 167.292 122.595 169.198 124.5 170.968C125.453 171.852 125.657 171.852 128.242 170.559C132.12 168.517 133.957 168.858 131.507 171.036C130.623 171.784 130.419 172.669 130.419 175.323C130.419 179.407 131.643 180.904 135.113 180.904C138.515 180.904 139.467 179.611 139.467 175.051C139.467 173.009 139.739 170.831 140.148 170.287C142.325 166.68 132.732 163.345 127.221 165.727Z" fill="#010101"/>
<path fill-rule="evenodd" clip-rule="evenodd" d="M176.069 165.659C173.144 166.68 171.783 168.177 172.259 169.811C172.735 171.784 174.232 172.057 176.545 170.695C177.634 170.015 178.586 169.674 178.722 169.811C178.926 170.015 178.722 170.831 178.45 171.784C177.634 174.098 178.178 178.522 179.335 179.815C180.695 181.381 184.437 181.245 185.866 179.611C186.818 178.59 187.022 177.774 187.022 175.051C187.022 172.941 187.294 171.648 187.703 171.376C188.655 170.763 189.199 169.334 188.791 168.245C188.587 167.769 187.226 166.816 185.73 166.135C182.532 164.706 179.199 164.57 176.069 165.659Z" fill="#010101"/>
<path fill-rule="evenodd" clip-rule="evenodd" d="M227.23 179.475C225.189 180.36 222.331 183.287 221.651 185.26C220.563 188.459 224.508 189.888 226.073 186.826C227.23 184.648 228.727 183.559 231.244 183.15C233.285 182.742 233.557 182.538 233.761 181.177C233.829 180.292 233.693 179.475 233.217 179.203C232.196 178.522 228.999 178.658 227.23 179.475Z" fill="#010101"/>
<path fill-rule="evenodd" clip-rule="evenodd" d="M146.543 192.679C145.659 193.564 145.795 196.354 146.815 197.647C148.652 199.961 151.577 200.642 153.754 199.145C155.864 197.647 154.911 195.265 151.986 194.993C151.237 194.925 150.557 194.721 150.489 194.585C150.421 194.516 150.081 193.904 149.809 193.291C149.128 192.134 147.495 191.726 146.543 192.679Z" fill="#010101"/>
<path fill-rule="evenodd" clip-rule="evenodd" d="M161.85 207.244C159.809 208.809 159.061 209.081 156.408 209.081C153.89 209.081 152.938 208.809 151.509 207.72C149.468 206.155 148.992 206.087 147.836 207.312C146.611 208.673 146.747 209.286 148.516 210.987C151.509 213.778 155.251 214.458 160.15 213.029C163.279 212.076 166.681 209.422 166.681 207.924C166.681 206.972 165.32 205.27 164.64 205.27C164.436 205.406 163.211 206.291 161.85 207.244Z" fill="#010101"/>
<path d="M187.091 193.836C190.698 193.836 193.622 191.886 193.622 189.48C193.622 187.074 190.698 185.124 187.091 185.124C183.484 185.124 180.56 187.074 180.56 189.48C180.56 191.886 183.484 193.836 187.091 193.836Z" fill="#D05248"/>
<path d="M126.541 193.836C130.148 193.836 133.073 191.886 133.073 189.48C133.073 187.074 130.148 185.124 126.541 185.124C122.934 185.124 120.01 187.074 120.01 189.48C120.01 191.886 122.934 193.836 126.541 193.836Z" fill="#D05248"/>
<path d="M228.522 247.127L204.371 235.829C200.561 234.06 198.928 229.5 200.697 225.688L224.1 175.596C225.869 171.784 230.427 170.151 234.237 171.92L258.389 183.218C262.199 184.988 263.831 189.548 262.063 193.359L238.659 243.452C236.89 247.263 232.332 248.965 228.522 247.127Z" fill="#D25248" stroke="black" stroke-width="2" stroke-miterlimit="10"/>
<path d="M228.795 181.925C230.223 182.606 231.856 181.993 232.536 180.564C233.217 179.135 232.604 177.501 231.176 176.821C229.747 176.14 228.114 176.753 227.434 178.182C226.822 179.611 227.434 181.245 228.795 181.925Z" fill="white" stroke="black" stroke-width="2" stroke-miterlimit="10"/>
<path d="M234.441 184.58C235.054 184.852 235.802 184.58 236.142 183.967C236.414 183.355 236.142 182.606 235.53 182.266C234.918 181.993 234.169 182.266 233.829 182.878C233.557 183.491 233.829 184.239 234.441 184.58Z" fill="black" stroke="black" stroke-width="2" stroke-miterlimit="10"/>
<path d="M245.939 228.955C245.463 228.955 245.258 229.84 243.83 233.243C242.061 237.258 241.108 239.368 240.496 239.3C239.952 239.232 239.816 237.531 239.68 231.269C239.612 227.798 239.476 223.987 239.408 220.856C239.067 212.757 238.455 210.783 237.163 210.306C236.482 210.034 235.598 210.238 235.122 210.579C233.965 211.259 233.829 212.757 233.557 215.343C233.285 217.385 232.74 222.421 232.74 222.557C232.604 224.531 232.4 226.573 232.128 228.683C231.924 230.248 231.788 231.745 231.584 233.243C231.584 233.379 231.516 233.583 231.516 233.855C231.38 235.012 231.244 235.829 231.176 236.033C231.108 236.646 231.108 236.51 230.972 237.054C230.904 237.463 230.836 237.803 230.699 238.824C230.563 239.981 230.563 240.049 230.495 240.049C230.291 240.049 230.155 235.557 230.155 234.74C230.155 234.128 230.223 233.447 230.223 233.447C230.223 233.311 230.223 233.107 230.291 232.903C230.359 231.745 230.427 231.269 230.631 229.84C230.767 228.819 230.904 227.39 231.04 225.756C231.108 224.599 231.108 223.714 231.108 223.238C231.176 218.678 231.516 216.432 231.312 212.348C231.176 209.149 230.904 207.72 229.883 207.176C229.203 206.835 228.454 207.04 228.386 207.04C225.937 207.72 225.257 213.165 224.236 221.4C224.236 221.468 224.236 221.604 224.168 221.877C223.964 223.442 223.692 224.599 223.624 225.076C223.624 225.212 223.42 226.369 223.012 228.819C222.672 230.725 222.331 232.63 222.059 234.536C221.787 235.761 221.719 236.578 221.651 237.19C221.583 237.939 221.311 239.368 221.243 239.368C221.107 239.368 221.175 235.557 221.651 231.473C221.991 228.342 222.876 223.17 222.876 222.898C222.876 222.83 222.876 222.762 222.944 222.693C222.944 222.489 223.012 222.285 223.012 222.285C223.08 221.877 223.488 219.358 223.692 217.793C223.692 217.657 223.76 216.908 223.896 215.547C224.1 213.778 224.168 212.825 224.168 212.621C224.168 210.987 224.168 209.286 223.08 208.537C222.808 208.401 222.195 208.06 221.039 208.333C220.699 208.537 220.222 208.877 219.814 209.422C219.406 209.966 219.202 210.443 219.134 210.647C217.637 214.526 217.365 215.955 217.365 215.955C216.957 217.929 216.685 219.631 216.208 223.102C216.14 223.442 216.072 224.123 215.936 225.144C215.732 226.505 215.528 227.526 215.46 227.662C215.12 229.431 213.963 238.007 213.827 238.007C213.691 238.007 214.099 233.719 214.508 227.798C215.12 218.338 215.12 215.411 213.691 214.798C213.215 214.594 212.467 214.594 211.174 215.479C211.106 215.547 211.038 215.751 210.902 215.887C209.269 218.542 208.793 220.992 208.589 222.081C206.412 233.719 206.003 236.85 206.003 236.85C205.255 242.295 204.915 244.949 204.915 245.221C204.235 252.368 204.439 257.949 204.575 260.331C204.711 263.257 204.983 265.367 205.051 265.98C205.323 268.634 205.731 270.948 206.072 272.854C211.038 274.147 214.916 274.623 217.705 274.76C220.29 274.896 222.331 274.896 223.624 274.896C227.638 274.896 231.04 274.555 233.557 274.283C237.231 271.629 239.408 268.838 240.7 266.933C242.605 264.074 243.626 261.42 244.986 257.608C245.531 256.111 246.279 254.069 247.027 251.279C247.708 248.761 248.592 245.085 248.66 240.661C248.456 234.876 247.163 228.955 245.939 228.955Z" fill="white" stroke="black" stroke-width="2" stroke-miterlimit="10"/>
<path d="M205.391 271.765C204.167 277.89 203.078 283.267 202.126 287.623C199.677 299.602 199.132 302.46 198.52 305.523C197.364 311.784 196.411 317.093 195.731 321.177L193.554 331.658L192.941 334.721L232.877 325.737C233.557 319.407 234.237 313.01 234.918 306.68C235.258 300.418 235.598 294.157 235.938 287.827C236.278 282.382 236.687 277.006 237.027 271.561C234.101 273.058 227.91 275.644 219.814 275.304C213.283 275.168 208.249 273.194 205.391 271.765Z" fill="black" stroke="black" stroke-width="2" stroke-miterlimit="10"/>
<circle cx="352" cy="284" r="19" fill="#CF5147"/>
<circle cx="19.5" cy="326.5" r="17.5" fill="#66977A"/>
<circle cx="66.5" cy="164.5" r="31.5" fill="#FED6D3"/>
<circle cx="88.5" cy="278.5" r="9.5" fill="#C8E6D4"/>
<circle cx="299" cy="149" r="16" fill="#66977A"/>
<circle cx="240" cy="67" r="9" fill="#FD9C95"/>
</svg>
