<svg width="993" height="341" viewBox="0 0 993 341" fill="none" xmlns="http://www.w3.org/2000/svg">
<path fill-rule="evenodd" clip-rule="evenodd" d="M540.953 31.5679C536.462 32.4527 532.176 33.5416 528.979 34.7667C527.618 35.2432 526.121 35.7876 525.509 35.9238C522.788 36.7405 513.331 41.9811 509.726 44.7035C504.963 48.3107 498.976 54.4362 496.051 58.8601C489.996 67.7079 485.302 80.5033 483.669 92.55C482.784 99.356 481.56 110.314 481.016 115.759C480.335 123.722 479.655 128.418 478.294 133.726C476.934 139.103 475.437 142.234 471.287 149.312C466.389 157.548 463.191 164.762 461.558 171.16C460.198 176.4 460.13 177.557 460.402 184.227C460.81 195.525 463.667 204.713 469.178 212.404C477.206 223.77 492.309 234.932 504.419 238.675C506.528 239.356 508.229 240.037 508.229 240.309C508.229 240.581 505.78 243.236 502.786 246.23C492.173 256.984 486.866 268.01 489.044 274.679C491.697 282.574 505.916 288.7 528.23 291.558C535.374 292.443 560.138 292.443 567.145 291.558C574.833 290.537 582.249 289.448 584.698 288.904C585.854 288.632 588.304 288.087 590.072 287.815C591.841 287.407 594.359 286.862 595.651 286.454C597.012 286.045 598.985 285.501 600.209 285.161C606.877 283.323 612.115 281.758 613.544 281.145C614.428 280.737 615.993 280.124 617.013 279.784C618.034 279.376 621.232 277.81 624.021 276.449C632.321 272.297 636.675 267.533 636.675 262.633C636.675 257.664 631.913 246.57 626.946 240.377C625.45 238.539 624.293 236.974 624.429 236.838C624.497 236.77 627.423 235.749 630.756 234.728C656.609 226.357 672.12 209.818 675.25 187.29C676.134 180.824 676.27 175.72 675.522 170.003C673.685 156.254 669.943 149.38 656.881 135.972C643.342 122.088 641.369 119.093 638.92 109.021C632.797 83.1576 624.701 67.1635 610.891 53.7556C598.304 41.7089 581.84 33.95 562.723 31.2957C557.621 30.6151 545.443 30.8192 540.953 31.5679ZM529.795 80.7755C535.238 88.2622 541.905 96.2933 546.735 101.398C548.708 103.44 550.205 105.277 550.205 105.549C550.205 105.754 549.525 105.958 548.776 105.958C547.28 105.958 543.538 107.115 541.565 108.136C540.408 108.816 540.272 110.926 541.497 111.879C542.177 112.424 542.79 112.356 544.967 111.607C546.94 110.926 548.708 110.722 551.974 110.858L556.328 111.062L560.886 114.738C565.853 118.821 573.54 123.994 577.622 126.104C582.385 128.554 589.8 131.208 590.957 130.868C591.637 130.664 592.794 129.507 593.814 128.214C596.944 123.926 603.883 121.884 608.169 124.062C611.979 126.036 613.612 128.622 614.768 134.407C616.877 145.229 609.122 157.752 600.345 157.752C598.713 157.752 597.08 157.207 594.699 155.914C591.365 154.076 591.297 154.076 590.277 155.029C589.732 155.574 589.12 157.071 588.916 158.364C587.895 164.286 584.494 170.955 579.936 175.72C576.058 179.803 575.717 181.096 578.099 182.117C579.187 182.662 579.391 183.274 580.072 189.264C580.752 195.457 582.317 202.876 584.154 208.184C586.127 213.902 589.256 218.257 593.406 220.844C594.563 221.592 595.583 222.477 595.583 222.817C595.583 223.77 587.487 231.869 584.154 234.184C578.575 238.131 571.363 240.99 564.356 242.147C558.369 243.031 548.913 242.419 544.831 240.717C540.136 238.88 535.306 233.979 535.306 231.189C535.306 230.576 538.027 229.011 542.994 226.629C549.797 223.294 550.885 222.613 552.178 220.639C553.539 218.53 553.607 217.917 553.607 213.017C553.607 207.844 552.382 201.106 551.158 199.541C550.409 198.588 550.953 198.043 553.471 197.295C554.763 196.886 557.485 195.934 559.526 195.185C562.995 193.892 563.267 193.688 563.267 192.19C563.267 190.829 563.063 190.625 561.839 190.421C560.954 190.353 558.981 190.693 557.281 191.306C546.395 195.117 535.306 196.002 527.006 193.824C517.958 191.374 507.412 183.683 502.65 175.856C500.337 172.112 499.521 170.275 498.976 167.552C498.024 163.06 496.323 148.7 496.323 144.888C496.323 142.642 496.119 138.967 495.779 136.585C495.507 134.271 495.166 129.371 495.098 125.627C494.894 117.12 495.915 113.717 498.84 112.424C501.153 111.471 506.324 111.335 510.27 112.219C513.739 113.036 515.168 112.424 514.828 110.382C514.556 108.544 511.018 107.251 505.78 106.979C503.126 106.775 501.085 106.57 501.085 106.298C501.085 104.733 511.29 89.7595 517.889 81.5922C520.203 78.7337 522.516 75.8752 522.992 75.3307C523.4 74.7862 524.08 74.3778 524.489 74.3098C524.897 74.514 527.278 77.3725 529.795 80.7755Z" fill="#010101"/>
<path fill-rule="evenodd" clip-rule="evenodd" d="M501.221 120.727C497.548 122.292 496.595 124.198 498.5 125.968C499.453 126.852 499.657 126.852 502.242 125.559C506.12 123.517 507.957 123.858 505.507 126.036C504.623 126.784 504.419 127.669 504.419 130.323C504.419 134.407 505.643 135.904 509.113 135.904C512.515 135.904 513.467 134.611 513.467 130.051C513.467 128.009 513.739 125.831 514.148 125.287C516.325 121.68 506.732 118.345 501.221 120.727Z" fill="#010101"/>
<path fill-rule="evenodd" clip-rule="evenodd" d="M550.069 120.659C547.144 121.68 545.783 123.177 546.259 124.811C546.735 126.784 548.232 127.057 550.545 125.695C551.634 125.015 552.586 124.674 552.722 124.811C552.926 125.015 552.722 125.831 552.45 126.784C551.634 129.098 552.178 133.522 553.335 134.815C554.695 136.381 558.437 136.245 559.866 134.611C560.818 133.59 561.022 132.774 561.022 130.051C561.022 127.941 561.294 126.648 561.703 126.376C562.655 125.763 563.199 124.334 562.791 123.245C562.587 122.769 561.226 121.816 559.73 121.135C556.532 119.706 553.199 119.57 550.069 120.659Z" fill="#010101"/>
<path fill-rule="evenodd" clip-rule="evenodd" d="M601.23 134.475C599.189 135.36 596.331 138.286 595.651 140.26C594.563 143.459 598.508 144.888 600.073 141.826C601.23 139.648 602.727 138.559 605.244 138.15C607.285 137.742 607.557 137.538 607.761 136.177C607.829 135.292 607.693 134.475 607.217 134.203C606.196 133.522 602.999 133.658 601.23 134.475Z" fill="#010101"/>
<path fill-rule="evenodd" clip-rule="evenodd" d="M520.543 147.679C519.659 148.564 519.795 151.354 520.815 152.647C522.652 154.961 525.577 155.642 527.754 154.145C529.864 152.647 528.911 150.265 525.986 149.993C525.237 149.925 524.557 149.721 524.489 149.585C524.421 149.516 524.081 148.904 523.809 148.291C523.128 147.134 521.495 146.726 520.543 147.679Z" fill="#010101"/>
<path fill-rule="evenodd" clip-rule="evenodd" d="M535.85 162.244C533.809 163.809 533.061 164.081 530.408 164.081C527.89 164.081 526.938 163.809 525.509 162.72C523.468 161.155 522.992 161.087 521.836 162.312C520.611 163.673 520.747 164.286 522.516 165.987C525.509 168.778 529.251 169.458 534.15 168.029C537.279 167.076 540.681 164.422 540.681 162.924C540.681 161.972 539.32 160.27 538.64 160.27C538.436 160.406 537.211 161.291 535.85 162.244Z" fill="#010101"/>
<path d="M561.091 148.836C564.698 148.836 567.622 146.886 567.622 144.48C567.622 142.074 564.698 140.124 561.091 140.124C557.484 140.124 554.56 142.074 554.56 144.48C554.56 146.886 557.484 148.836 561.091 148.836Z" fill="#D05248"/>
<path d="M500.541 148.836C504.148 148.836 507.073 146.886 507.073 144.48C507.073 142.074 504.148 140.124 500.541 140.124C496.934 140.124 494.01 142.074 494.01 144.48C494.01 146.886 496.934 148.836 500.541 148.836Z" fill="#D05248"/>
<path d="M602.522 202.127L578.371 190.829C574.561 189.06 572.928 184.5 574.697 180.688L598.1 130.596C599.869 126.784 604.427 125.151 608.237 126.92L632.389 138.218C636.199 139.988 637.831 144.548 636.063 148.359L612.659 198.452C610.89 202.263 606.332 203.965 602.522 202.127Z" fill="#D25248" stroke="black" stroke-width="2" stroke-miterlimit="10"/>
<path d="M602.795 136.925C604.223 137.606 605.856 136.993 606.536 135.564C607.217 134.135 606.604 132.501 605.176 131.821C603.747 131.14 602.114 131.753 601.434 133.182C600.822 134.611 601.434 136.245 602.795 136.925Z" fill="white" stroke="black" stroke-width="2" stroke-miterlimit="10"/>
<path d="M608.441 139.58C609.054 139.852 609.802 139.58 610.142 138.967C610.414 138.355 610.142 137.606 609.53 137.266C608.918 136.993 608.169 137.266 607.829 137.878C607.557 138.491 607.829 139.239 608.441 139.58Z" fill="black" stroke="black" stroke-width="2" stroke-miterlimit="10"/>
<path d="M619.939 183.955C619.463 183.955 619.258 184.84 617.83 188.243C616.061 192.258 615.108 194.368 614.496 194.3C613.952 194.232 613.816 192.531 613.68 186.269C613.612 182.798 613.476 178.987 613.408 175.856C613.067 167.757 612.455 165.783 611.163 165.306C610.482 165.034 609.598 165.238 609.122 165.579C607.965 166.259 607.829 167.757 607.557 170.343C607.285 172.385 606.74 177.421 606.74 177.557C606.604 179.531 606.4 181.573 606.128 183.683C605.924 185.248 605.788 186.745 605.584 188.243C605.584 188.379 605.516 188.583 605.516 188.855C605.38 190.012 605.244 190.829 605.176 191.033C605.108 191.646 605.108 191.51 604.972 192.054C604.904 192.463 604.836 192.803 604.699 193.824C604.563 194.981 604.563 195.049 604.495 195.049C604.291 195.049 604.155 190.557 604.155 189.74C604.155 189.128 604.223 188.447 604.223 188.447C604.223 188.311 604.223 188.107 604.291 187.903C604.359 186.745 604.427 186.269 604.631 184.84C604.767 183.819 604.904 182.39 605.04 180.756C605.108 179.599 605.108 178.714 605.108 178.238C605.176 173.678 605.516 171.432 605.312 167.348C605.176 164.149 604.904 162.72 603.883 162.176C603.203 161.835 602.454 162.04 602.386 162.04C599.937 162.72 599.257 168.165 598.236 176.4C598.236 176.468 598.236 176.604 598.168 176.877C597.964 178.442 597.692 179.599 597.624 180.076C597.624 180.212 597.42 181.369 597.012 183.819C596.672 185.725 596.331 187.63 596.059 189.536C595.787 190.761 595.719 191.578 595.651 192.19C595.583 192.939 595.311 194.368 595.243 194.368C595.107 194.368 595.175 190.557 595.651 186.473C595.991 183.342 596.876 178.17 596.876 177.898C596.876 177.83 596.876 177.762 596.944 177.693C596.944 177.489 597.012 177.285 597.012 177.285C597.08 176.877 597.488 174.358 597.692 172.793C597.692 172.657 597.76 171.908 597.896 170.547C598.1 168.778 598.168 167.825 598.168 167.621C598.168 165.987 598.168 164.286 597.08 163.537C596.808 163.401 596.195 163.06 595.039 163.333C594.699 163.537 594.222 163.877 593.814 164.422C593.406 164.966 593.202 165.443 593.134 165.647C591.637 169.526 591.365 170.955 591.365 170.955C590.957 172.929 590.685 174.631 590.208 178.102C590.14 178.442 590.072 179.123 589.936 180.144C589.732 181.505 589.528 182.526 589.46 182.662C589.12 184.431 587.963 193.007 587.827 193.007C587.691 193.007 588.099 188.719 588.508 182.798C589.12 173.338 589.12 170.411 587.691 169.798C587.215 169.594 586.467 169.594 585.174 170.479C585.106 170.547 585.038 170.751 584.902 170.887C583.269 173.542 582.793 175.992 582.589 177.081C580.412 188.719 580.003 191.85 580.003 191.85C579.255 197.295 578.915 199.949 578.915 200.221C578.235 207.368 578.439 212.949 578.575 215.331C578.711 218.257 578.983 220.367 579.051 220.98C579.323 223.634 579.731 225.948 580.072 227.854C585.038 229.147 588.916 229.623 591.705 229.76C594.29 229.896 596.331 229.896 597.624 229.896C601.638 229.896 605.04 229.555 607.557 229.283C611.231 226.629 613.408 223.838 614.7 221.933C616.605 219.074 617.626 216.42 618.986 212.608C619.531 211.111 620.279 209.069 621.027 206.279C621.708 203.761 622.592 200.085 622.66 195.661C622.456 189.876 621.163 183.955 619.939 183.955Z" fill="white" stroke="black" stroke-width="2" stroke-miterlimit="10"/>
<path d="M579.391 226.765C578.167 232.89 577.078 238.267 576.126 242.623C573.677 254.602 573.132 257.46 572.52 260.523C571.364 266.784 570.411 272.093 569.731 276.177L567.554 286.658L566.941 289.721L606.877 280.737C607.557 274.407 608.237 268.01 608.918 261.68C609.258 255.418 609.598 249.157 609.938 242.827C610.278 237.382 610.687 232.006 611.027 226.561C608.101 228.058 601.91 230.644 593.814 230.304C587.283 230.168 582.249 228.194 579.391 226.765Z" fill="black" stroke="black" stroke-width="2" stroke-miterlimit="10"/>
<circle cx="726" cy="239" r="19" fill="#CF5147"/>
<circle cx="393.5" cy="281.5" r="17.5" fill="#66977A"/>
<circle cx="440.5" cy="119.5" r="31.5" fill="#FED6D3"/>
<circle cx="462.5" cy="233.5" r="9.5" fill="#C8E6D4"/>
<circle cx="673" cy="104" r="16" fill="#66977A"/>
<circle cx="614" cy="22" r="9" fill="#FD9C95"/>
<circle cx="801" cy="57" r="57" fill="#C8E5D4"/>
<circle cx="837.5" cy="198.5" r="32.5" fill="#FED6D3"/>
<circle cx="888" cy="319" r="11" fill="#C8E5D4"/>
<circle cx="972.5" cy="123.5" r="20.5" fill="#66977A"/>
<circle cx="312.5" cy="158.5" r="26.5" fill="#FD9C95"/>
<circle cx="295" cy="243" r="38" fill="#C8E5D4"/>
<circle cx="140" cy="123" r="20" fill="#CF5147"/>
<circle cx="200" cy="231" r="11" fill="#FED6D3"/>
<circle cx="16.5" cy="324.5" r="16.5" fill="#FED6D3"/>
</svg>
