<svg width="47" height="48" viewBox="0 0 47 48" fill="none" xmlns="http://www.w3.org/2000/svg">
<g clip-path="url(#clip0)">
<path d="M45.0259 27.5153C46.4182 15.7956 44.357 8.39659 40.639 5.05003L40.6409 5.04809C34.6401 -0.66692 14.3741 -1.5128 7.19482 5.30477C3.97077 8.63966 2.83516 13.5341 2.71071 19.5933C2.58626 25.6544 2.43848 37.0086 13.0187 40.0887H13.0284L13.0187 44.7926C13.0187 44.7926 12.9468 46.6982 14.1641 47.0813C15.5564 47.5324 16.1864 46.6477 20.5169 41.4752C27.7584 42.1033 33.3197 40.6643 33.9517 40.4543C35.414 39.9643 43.688 38.8695 45.0259 27.5153ZM21.2305 38.1656C21.2305 38.1656 16.6472 43.8806 15.2219 45.3643C14.7552 45.8465 14.2438 45.8018 14.2516 44.8451C14.2516 44.217 14.2866 37.0358 14.2866 37.0358C5.3164 34.4651 5.84531 24.7969 5.94254 19.7391C6.03977 14.6794 6.96537 10.5356 9.69551 7.74517C15.9939 1.83959 33.7612 3.15994 38.288 7.4146C43.8222 12.3207 41.8524 26.1814 41.8641 26.6539C40.7265 36.1316 34.0217 36.7324 32.7889 37.1427C32.2619 37.3178 27.3714 38.5759 21.2305 38.1656Z" fill="black"/>
<path d="M23.7662 8.85547C23.0175 8.85547 23.0175 10.0222 23.7662 10.0319C29.5745 10.0766 34.3581 14.1252 34.4106 21.5514C34.4106 22.335 35.5579 22.3253 35.5482 21.5417H35.5462C35.484 13.5399 30.261 8.90019 23.7662 8.85547Z" fill="black"/>
<path d="M31.4063 20.3207C31.3888 21.0946 32.5341 21.1316 32.5439 20.3479C32.6391 15.9358 29.9187 12.3014 24.8065 11.9183C24.0579 11.8639 23.9801 13.0403 24.7268 13.0948C29.1604 13.4312 31.4958 16.4569 31.4063 20.3207Z" fill="black"/>
<path d="M30.1812 25.3397C29.2206 24.7835 28.2425 25.1297 27.838 25.6761L26.9921 26.7709C26.5624 27.327 25.7593 27.2531 25.7593 27.2531C19.8984 25.7033 18.3311 19.5702 18.3311 19.5702C18.3311 19.5702 18.2592 18.7399 18.7959 18.2946L19.8537 17.4196C20.3826 16.9995 20.7171 15.9884 20.1785 14.9947C18.7395 12.3949 17.7731 11.4984 17.2811 10.8101C16.7638 10.1625 15.986 10.0167 15.1771 10.4542H15.1596C13.4776 11.4381 11.6361 13.2796 12.2253 15.1756C13.2306 17.1745 15.0779 23.5468 20.966 28.3615C23.7331 30.6386 28.1122 32.972 29.9712 33.5106L29.9887 33.5379C31.8204 34.1485 33.6016 32.235 34.5525 30.5024V30.4888C34.9745 29.6507 34.8345 28.8574 34.218 28.3382C33.1252 27.2726 31.4762 26.0961 30.1812 25.3397Z" fill="black"/>
<path d="M25.6076 16.2587C27.4763 16.3676 28.3825 17.3438 28.4797 19.3486C28.5147 20.1323 29.6523 20.0778 29.6173 19.2942C29.4928 16.6768 28.1278 15.2184 25.6698 15.0823C24.9212 15.0376 24.8512 16.214 25.6076 16.2587Z" fill="black"/>
</g>
<defs>
<clipPath id="clip0">
<rect width="46.669" height="46.669" fill="white" transform="translate(0 0.5)"/>
</clipPath>
</defs>
</svg>
