<svg width="19" height="19" viewBox="0 0 19 19" fill="none" xmlns="http://www.w3.org/2000/svg">
<path d="M18.4828 13.9441L15.8313 11.2926C14.8843 10.3456 13.2745 10.7244 12.8957 11.9555C12.6116 12.8078 11.6647 13.2812 10.8124 13.0918C8.91846 12.6183 6.36165 10.1562 5.88816 8.16759C5.60407 7.31528 6.17225 6.36831 7.02452 6.08426C8.25558 5.70547 8.63437 4.09563 7.6874 3.14866L5.03589 0.497158C4.27832 -0.165719 3.14196 -0.165719 2.47908 0.497158L0.679845 2.29639C-1.11939 4.19033 0.869239 9.20925 5.31998 13.66C9.77073 18.1107 14.7896 20.1941 16.6836 18.3001L18.4828 16.5009C19.1457 15.7433 19.1457 14.607 18.4828 13.9441Z" fill="black"/>
</svg>
